<?xml version="1.0" encoding="UTF-8"?>
<svg id="Layer_2" xmlns="http://www.w3.org/2000/svg" viewBox="0 0 512 512">
  <defs>
    <style>
      .cls-1 {
        stroke: #1c75fa;
        stroke-linecap: round;
        stroke-width: 28px;
      }

      .cls-1, .cls-2 {
        fill: none;
        stroke-miterlimit: 10;
      }

      .cls-2 {
        stroke: #0c3268;
        stroke-width: 27px;
      }
    </style>
  </defs>
  <path class="cls-2" d="M169.65,66.28c15.62-.98,32.68,2.41,46.7,7.57,15.83,6.13,34.13,9.83,51.59,8.21,10.89-.68,23.02-3.38,32.67-6.73,7.65-2.61,14.64-5.19,23.52-7.03,9.06-1.91,20.09-2.68,29.92-2.02,149.1,11.87,70.68,220.3,41.82,318.09-7.93,23.58-16.62,49.46-35.89,62.47-9.22,6.09-21.36,6.69-30.37-.19-30.1-20.33-28.03-112.16-65.97-115.53-12.66-.98-24.99,11.27-30.39,22.85-12.9,25.73-12.58,61.24-33.04,83.5-57.6,56.15-80.29-80.51-96.14-130.26-22.6-71.68-56.48-234.52,65.34-240.92h.23Z"/>
  <path class="cls-1" d="M171.5,286.5l61.22-74.05c.44-.53,1.21-.61,1.75-.19l55.91,43.38c.59.46,1.46.3,1.84-.35l64.28-107.79"/>
  <line class="cls-1" x1="338.94" y1="286.5" x2="338.94" y2="349.37"/>
</svg>